HIERARCHY
ROOT Hips
{
	OFFSET 0.000000 0.000000 0.000000
	CHANNELS 6 Xposition Yposition Zposition Xrotation Yrotation Zrotation
	JOINT LeftUpLeg_virtual
	{
		OFFSET 0.000000 0.000000 0.000000
		CHANNELS 3 Xrotation Yrotation Zrotation
		JOINT LeftUpLeg
		{
			OFFSET 13.026900 -6.336304 -1.092800
			CHANNELS 3 Xrotation Yrotation Zrotation
			JOINT LeftLeg
			{
				OFFSET 0.524474 -46.096886 9.782700
				CHANNELS 3 Xrotation Yrotation Zrotation
				JOINT LeftFoot
				{
					OFFSET -0.524474 -53.427422 -12.948200
					CHANNELS 3 Xrotation Yrotation Zrotation
					JOINT LeftToeBase
					{
						OFFSET 0.192200 -14.009700 16.364100
						CHANNELS 3 Xrotation Yrotation Zrotation
						JOINT LeftToe_End
						{
							OFFSET -1.784700 -0.561700 9.474800
							CHANNELS 3 Xrotation Yrotation Zrotation
							End Site
							{
								OFFSET 0 0 0
							}
						}
					}
				}
			}
		}
	}
	JOINT RightUpLeg_virtual
	{
		OFFSET 0.000000 0.000000 0.000000
		CHANNELS 3 Xrotation Yrotation Zrotation
		JOINT RightUpLeg
		{
			OFFSET -12.883000 -6.336304 -1.092800
			CHANNELS 3 Xrotation Yrotation Zrotation
			JOINT RightLeg
			{
				OFFSET -0.524587 -46.096825 9.782800
				CHANNELS 3 Xrotation Yrotation Zrotation
				JOINT RightFoot
				{
					OFFSET 0.524587 -53.427383 -12.948300
					CHANNELS 3 Xrotation Yrotation Zrotation
					JOINT RightToeBase
					{
						OFFSET -0.192200 -14.009700 16.364100
						CHANNELS 3 Xrotation Yrotation Zrotation
						JOINT RightToe_End
						{
							OFFSET 1.784700 -0.561700 9.474800
							CHANNELS 3 Xrotation Yrotation Zrotation
							End Site
							{
								OFFSET 0 0 0
							}
						}
					}
				}
			}
		}
	}
	JOINT Spine_virtual
	{
		OFFSET 0.000000 0.000000 0.000000
		CHANNELS 3 Xrotation Yrotation Zrotation
		JOINT Spine
		{
			OFFSET 0.072000 7.257294 -0.789700
			CHANNELS 3 Xrotation Yrotation Zrotation
			JOINT Spine1
			{
				OFFSET 0.000000 12.508769 -0.658067
				CHANNELS 3 Xrotation Yrotation Zrotation
				JOINT Spine1_split
				{
					OFFSET 0.000000 12.508769 -0.658067
					CHANNELS 3 Xrotation Yrotation Zrotation
					JOINT Spine2
					{
						OFFSET 0.000000 12.508769 -0.658067
						CHANNELS 3 Xrotation Yrotation Zrotation
						JOINT Neck_virtual
						{
							OFFSET 0.000000 0.000000 0.000000
							CHANNELS 3 Xrotation Yrotation Zrotation
							JOINT Neck
							{
								OFFSET 0.000000 14.033295 7.520400
								CHANNELS 3 Xrotation Yrotation Zrotation
								JOINT Head
								{
									OFFSET 0.000000 8.198502 5.703100
									CHANNELS 3 Xrotation Yrotation Zrotation
									JOINT HeadTop_End
									{
										OFFSET 0.000000 17.760803 13.332701
										CHANNELS 3 Xrotation Yrotation Zrotation
										End Site
										{
											OFFSET 0 0 0
										}
									}
								}
							}
						}
						JOINT LeftShoulder_virtual
						{
							OFFSET 0.000000 0.000000 0.000000
							CHANNELS 3 Xrotation Yrotation Zrotation
							JOINT LeftShoulder
							{
								OFFSET 6.292450 5.785301 -0.669000
								CHANNELS 3 Xrotation Yrotation Zrotation
								JOINT LeftShoulder_split
								{
									OFFSET 6.292450 5.785301 -0.669000
									CHANNELS 3 Xrotation Yrotation Zrotation
									JOINT LeftArm
									{
										OFFSET 13.907140 -6.093903 1.965100
										CHANNELS 3 Xrotation Yrotation Zrotation
										JOINT LeftForeArm
										{
											OFFSET 34.140198 0.000000 0.000000
											CHANNELS 3 Xrotation Yrotation Zrotation
											JOINT LeftHand
											{
												OFFSET 40.960209 0.000000 0.000000
												CHANNELS 3 Xrotation Yrotation Zrotation
												End Site
												{
													OFFSET 0 0 0
												}
											}
										}
									}
								}
							}
						}
						JOINT RightShoulder_virtual
						{
							OFFSET 0.000000 0.000000 0.000000
							CHANNELS 3 Xrotation Yrotation Zrotation
							JOINT RightShoulder
							{
								OFFSET -6.292450 5.785301 -0.669000
								CHANNELS 3 Xrotation Yrotation Zrotation
								JOINT RightShoulder_split
								{
									OFFSET -6.292450 5.785301 -0.669000
									CHANNELS 3 Xrotation Yrotation Zrotation
									JOINT RightArm
									{
										OFFSET -13.907140 -6.093903 1.965100
										CHANNELS 3 Xrotation Yrotation Zrotation
										JOINT RightForeArm
										{
											OFFSET -34.140198 0.000000 0.000000
											CHANNELS 3 Xrotation Yrotation Zrotation
											JOINT RightHand
											{
												OFFSET -40.960209 0.000000 0.000000
												CHANNELS 3 Xrotation Yrotation Zrotation
												End Site
												{
													OFFSET 0 0 0
												}
											}
										}
									}
								}
							}
						}
					}
				}
			}
		}
	}
}
MOTION
Frames: 11
Frame Time: 0.03333333
-1.030933 90.474106 -10.416294 0.000000 0.000000 0.000000 -1.061385 -36.463726 3.101696 -36.893038 12.933536 25.123321 54.783475 -10.637170 1.349164 -14.541116 -4.850084 -15.669651 -2.425673 -1.609640 -0.247738 0.000000 0.000000 0.000000 -1.824687 -33.335428 3.023850 -24.972688 -13.538442 -26.181565 58.493467 11.784177 -6.197335 -23.061239 -21.964128 33.116155 3.363561 8.366322 -11.113073 0.000000 0.000000 0.000000 -5.190242 -28.027932 1.220012 5.208326 2.806873 -0.341468 2.768836 -1.051178 -1.204433 0.167005 0.152003 0.072233 0.000000 0.000000 0.000000 3.900120 0.741881 0.075369 6.674314 18.183429 4.025348 -15.564043 -0.659652 -22.746113 0.000000 0.000000 0.000000 3.323110 -1.250143 -1.978409 1.988689 6.271049 -2.096272 1.924260 -6.922386 0.140716 -55.719423 9.313805 -40.408410 171.837314 -65.102228 169.135428 0.000000 0.000000 0.000000 5.129849 -0.857960 -0.600742 -3.313419 8.513433 -6.756548 -3.146017 -3.461479 4.678686 -47.554437 27.585556 89.416267 -143.396147 72.133273 141.967845 0.000000 0.000000 0.000000 
-0.953785 90.535492 -10.484150 0.000000 0.000000 0.000000 -0.916033 -36.488141 3.315185 -36.756639 12.934614 24.742036 54.233895 -10.863729 1.267672 -14.126720 -4.752417 -15.309627 -2.538087 -1.714377 -0.054873 0.000000 0.000000 0.000000 -1.963800 -33.382638 3.177977 -25.234397 -13.860364 -26.405136 58.664167 11.805939 -6.061232 -23.085479 -22.146808 32.528209 3.497878 8.370242 -11.150644 0.000000 0.000000 0.000000 -4.926135 -28.609009 1.396353 5.313818 3.015626 -0.646269 2.907265 -0.965761 -0.961661 0.289592 0.281110 0.146266 0.000000 0.000000 0.000000 3.932694 0.925835 0.104546 6.126012 18.084471 4.109352 -16.734162 -0.218555 -22.815639 0.000000 0.000000 0.000000 3.640502 -1.171582 -1.616173 1.856568 5.353259 -2.534472 3.069369 -5.947197 2.092924 -55.810459 10.861489 -41.519928 167.753626 -65.716378 164.956076 0.000000 0.000000 0.000000 5.302873 -0.655542 -0.418768 -3.299964 8.938213 -7.069473 -2.747961 -2.419030 3.171627 -48.627648 28.011053 89.284369 -145.577887 71.554756 144.199063 0.000000 0.000000 0.000000 
-0.793980 90.706642 -10.386097 0.000000 0.000000 0.000000 -0.710315 -36.806670 3.773768 -36.230633 12.753884 24.022752 53.602734 -11.322771 1.368444 -13.872289 -4.558547 -14.946990 -2.799433 -1.840159 0.003538 0.000000 0.000000 0.000000 -1.782402 -33.955937 3.597205 -25.557098 -13.630114 -26.472669 58.770445 12.138966 -6.165436 -22.629803 -22.035710 32.267224 2.665766 8.335997 -11.046952 0.000000 0.000000 0.000000 -4.297406 -29.512274 1.918594 5.348348 3.375087 -1.147848 2.996548 -0.787846 -0.657694 0.255530 0.240169 0.114620 0.000000 0.000000 0.000000 4.036799 1.328923 0.255116 5.442889 18.453819 3.915864 -17.142349 1.367541 -22.517525 0.000000 0.000000 0.000000 4.120879 -0.907548 -1.139960 1.542409 4.340983 -2.582471 4.464616 -3.783406 4.351585 -57.176504 13.308292 -43.106789 165.057505 -65.214230 162.135099 0.000000 0.000000 0.000000 5.278068 -0.281270 -0.195969 -3.174750 9.498496 -7.186421 -2.473405 -2.290387 2.268121 -49.888627 28.881240 89.116743 -147.827546 71.221388 146.470046 0.000000 0.000000 0.000000 
-0.643618 90.968491 -10.000759 0.000000 0.000000 0.000000 -0.413333 -37.377131 4.357939 -35.324758 12.704407 23.147385 52.991722 -11.643876 1.458145 -14.083520 -3.995378 -14.342632 -2.705524 -1.951860 -0.131455 0.000000 0.000000 0.000000 -1.182900 -34.941499 4.193452 -25.856397 -12.760986 -26.281151 58.618835 12.676662 -6.496546 -22.217364 -21.721532 31.755687 1.565502 8.189779 -10.832530 0.000000 0.000000 0.000000 -3.357670 -30.834452 2.730388 5.189372 3.798387 -1.683889 2.902226 -0.511438 -0.451601 0.112744 0.112058 0.056660 0.000000 0.000000 0.000000 4.133038 1.858804 0.428751 4.821612 19.197131 3.531729 -16.445407 4.703709 -21.837720 0.000000 0.000000 0.000000 4.506271 -0.473062 -0.724256 1.207270 3.712364 -1.981897 6.291696 -1.665562 5.381302 -59.052962 15.338848 -44.902562 164.797370 -64.305575 161.600691 0.000000 0.000000 0.000000 5.052655 0.168186 -0.092917 -3.023861 10.148765 -7.060455 -2.131777 -2.744221 2.247843 -51.080096 30.071656 89.008170 -149.851905 71.210910 148.487657 0.000000 0.000000 0.000000 
-0.576574 91.370926 -9.432301 0.000000 0.000000 0.000000 0.077268 -38.482905 4.959567 -34.122672 12.878412 22.374248 52.533796 -11.706045 1.480195 -14.717663 -2.831378 -13.627567 -1.948183 -1.999338 -0.411001 0.000000 0.000000 0.000000 -0.123731 -36.344762 4.912899 -26.359571 -11.200235 -25.871011 58.053159 13.296918 -6.936277 -21.940939 -21.200808 30.710952 1.303173 7.876260 -10.654389 0.000000 0.000000 0.000000 -2.160395 -32.614761 3.667251 4.809590 4.184686 -2.068359 2.533250 -0.170172 -0.475838 -0.058272 0.007743 -0.023545 0.000000 0.000000 0.000000 4.136074 2.402664 0.475804 4.460546 20.216004 3.037220 -14.870888 9.654308 -20.889326 0.000000 0.000000 0.000000 4.640749 0.064896 -0.502099 0.917848 3.796664 -0.843803 6.619619 -1.600654 4.643585 -59.744962 17.009119 -45.494691 166.310011 -62.723034 162.824415 0.000000 0.000000 0.000000 4.683513 0.559078 -0.167432 -2.876078 10.732356 -6.771832 -1.884014 -3.941204 2.489939 -52.318327 31.542493 89.053571 -151.408669 71.617914 150.016403 0.000000 0.000000 0.000000 
-0.619078 91.957100 -8.741619 0.000000 0.000000 0.000000 0.782827 -40.349476 5.477986 -32.316856 13.477805 21.771546 52.033973 -11.343290 1.352762 -15.861328 -0.985079 -12.552919 -0.851036 -2.002670 -0.682023 0.000000 0.000000 0.000000 1.126916 -38.373150 5.583757 -27.515636 -9.277522 -25.387260 57.050996 13.945394 -7.298627 -21.216770 -20.374398 29.503972 2.120883 7.434397 -10.648408 0.000000 0.000000 0.000000 -0.934067 -34.847495 4.471028 4.359047 4.394545 -2.155053 1.841718 0.125070 -0.753281 -0.129052 -0.101737 -0.069635 0.000000 0.000000 0.000000 3.944521 2.830761 0.360170 4.453369 21.381777 2.548045 -12.851136 15.503689 -19.926532 0.000000 0.000000 0.000000 4.479796 0.546415 -0.465941 0.724707 4.698342 0.762071 5.629882 -3.212051 3.431399 -59.269779 17.524109 -44.411983 168.132073 -60.923730 164.340417 0.000000 0.000000 0.000000 4.304841 0.807213 -0.411334 -2.780750 11.086025 -6.452847 -1.941601 -5.512020 2.530574 -53.749429 33.284024 89.365430 -152.414770 72.404035 151.020619 0.000000 0.000000 0.000000 
-0.708766 92.695297 -8.054516 0.000000 0.000000 0.000000 1.600327 -43.044802 5.858294 -29.882190 14.651661 21.378690 51.330866 -10.522728 1.061343 -17.502730 1.348539 -10.950579 0.093845 -1.993738 -0.839668 0.000000 0.000000 0.000000 2.266797 -41.094578 6.105338 -29.355798 -7.478661 -24.998566 55.632591 14.765624 -7.534702 -19.612192 -19.149776 28.875854 3.325607 7.002500 -10.989439 0.000000 0.000000 0.000000 0.182954 -37.193184 4.905443 3.965409 4.402795 -1.947475 1.076596 0.257642 -1.143420 -0.058217 -0.204257 0.013966 0.000000 0.000000 0.000000 3.579833 2.981260 0.171734 4.381072 22.601497 2.255325 -11.017087 21.546622 -18.975046 0.000000 0.000000 0.000000 4.054255 0.781869 -0.526216 0.502922 6.036221 2.437679 4.289938 -5.399667 1.814632 -58.844614 16.003348 -41.712556 168.323851 -60.125650 164.240901 0.000000 0.000000 0.000000 3.973748 0.803351 -0.702010 -2.735082 11.123218 -6.158358 -1.844756 -6.863647 2.581943 -55.645206 35.205127 89.722410 -153.257342 73.168716 151.932695 0.000000 0.000000 0.000000 
-0.738934 93.536270 -7.421810 0.000000 0.000000 0.000000 2.202590 -46.178796 6.017281 -27.215819 16.239183 21.204240 50.483120 -9.622083 0.781616 -19.102475 3.656346 -9.362679 0.549431 -1.981914 -0.915925 0.000000 0.000000 0.000000 3.169194 -44.154383 6.452587 -31.461426 -6.199948 -24.729115 53.808893 15.746923 -7.636069 -17.296722 -17.666909 29.087061 4.264731 6.707868 -11.725743 0.000000 0.000000 0.000000 0.871520 -39.505770 4.788839 3.856069 4.141195 -1.568226 0.436899 0.076182 -1.447639 0.070439 -0.368692 0.097770 0.000000 0.000000 0.000000 3.140128 2.727225 0.011818 3.860517 23.753499 2.183587 -9.967865 26.975110 -18.044468 0.000000 0.000000 0.000000 3.635457 0.624828 -0.558349 0.271893 7.399715 3.778103 3.002633 -7.096106 0.128754 -59.154937 12.010768 -36.907928 164.492306 -63.610556 160.262862 0.000000 0.000000 0.000000 3.597330 0.439802 -0.856861 -2.670746 10.720251 -5.977139 -1.822824 -7.902151 2.704619 -58.006474 37.070619 89.924829 -154.321294 73.581122 153.130300 0.000000 0.000000 0.000000 
-0.602191 94.304398 -6.922600 0.000000 0.000000 0.000000 2.424591 -49.051181 5.924085 -24.770675 18.060096 21.118745 49.551820 -8.954081 0.588152 -20.223779 5.499983 -8.200159 0.541673 -1.991036 -1.040724 0.000000 0.000000 0.000000 3.520563 -46.958264 6.473495 -33.284369 -5.674153 -24.599012 51.817961 16.617094 -7.596786 -14.865762 -16.273889 29.584763 4.998571 6.575750 -12.709707 0.000000 0.000000 0.000000 0.995900 -41.633036 4.151856 4.116843 3.671988 -1.176394 0.096658 -0.425005 -1.524090 0.149779 -0.513344 0.178077 0.000000 0.000000 0.000000 2.706680 2.130048 0.000470 2.834413 24.678896 2.077267 -9.934760 31.405241 -17.188484 0.000000 0.000000 0.000000 3.468153 0.028626 -0.441791 0.137852 8.137832 5.110333 2.104497 -6.965780 -0.266479 -59.830230 5.165105 -30.829985 144.088168 -74.493888 139.603357 0.000000 0.000000 0.000000 3.192205 -0.219338 -0.799433 -2.616014 10.003639 -5.913437 -1.967155 -8.347725 3.128961 -60.194703 38.657969 89.582958 -155.625287 73.496087 154.592780 0.000000 0.000000 0.000000 
-0.335559 94.916046 -6.544872 0.000000 0.000000 0.000000 2.388665 -51.182419 5.727348 -23.038464 19.689540 21.038089 48.649491 -8.798833 0.571829 -20.562705 6.601874 -7.961810 0.044619 -2.012662 -1.210600 0.000000 0.000000 0.000000 3.332840 -48.859082 6.254006 -34.312927 -5.651063 -24.567038 49.939290 17.137918 -7.486367 -12.910438 -15.361287 29.871948 5.641350 6.570231 -13.690338 0.000000 0.000000 0.000000 0.560408 -43.161926 3.213570 4.618859 3.114157 -0.853863 0.052681 -1.035577 -1.322893 0.199226 -0.579550 0.169647 0.000000 0.000000 0.000000 2.334044 1.375168 0.194002 1.258600 25.251730 1.729650 -10.631990 34.388247 -16.423625 0.000000 0.000000 0.000000 3.568320 -0.768598 -0.154666 0.113352 8.010942 6.498019 1.068136 -6.651690 0.595660 -59.564495 -2.989240 -25.024300 49.278988 -74.685605 44.684337 0.000000 0.000000 0.000000 2.823896 -1.047318 -0.523198 -2.589999 9.097032 -5.953915 -2.275896 -8.242359 4.050368 -61.253560 39.774070 88.238845 -157.012416 73.059706 156.078852 0.000000 0.000000 0.000000 
-0.098130 95.348381 -6.163292 0.000000 0.000000 0.000000 2.146862 -52.244937 5.610399 -21.983503 20.794378 20.787537 47.752479 -9.208782 0.762166 -20.268446 6.942445 -8.552441 -0.812406 -2.025208 -1.370559 0.000000 0.000000 0.000000 2.818041 -49.571925 5.949627 -34.515476 -5.770994 -24.627079 48.707804 17.279950 -7.433626 -11.420736 -15.064877 29.905184 5.867139 6.666394 -14.368503 0.000000 0.000000 0.000000 -0.310857 -44.201631 2.399041 5.181336 2.598005 -0.670419 0.143222 -1.488946 -0.923936 0.164476 -0.587612 0.048317 0.000000 0.000000 0.000000 2.118127 0.754284 0.539982 -0.518189 25.331442 1.072001 -11.230282 35.609574 -16.006325 0.000000 0.000000 0.000000 3.820926 -1.380109 0.265359 0.159620 7.814751 7.705528 0.417291 -6.662391 2.111289 -58.373980 -10.871990 -21.100235 20.571963 -53.537359 16.408805 0.000000 0.000000 0.000000 2.544625 -1.744291 -0.135018 -2.587589 8.062153 -6.117724 -3.162148 -7.212582 4.857505 -60.508079 40.223862 86.075144 -158.346092 72.519861 157.333312 0.000000 0.000000 0.000000 
